<svg width="27" height="29" viewBox="0 0 27 29" fill="none" xmlns="http://www.w3.org/2000/svg">
<path d="M9.27092 1.59472C5.91634 2.74376 3.0553 5.25777 1.4667 8.42728C0.911455 9.52234 0.510447 10.6868 0.271385 11.8898C-0.337838 14.882 0.0863047 18.0669 1.4667 20.7968C2.36125 22.5782 3.6491 24.1591 5.20686 25.393C6.67979 26.5652 8.39179 27.4289 10.2117 27.9147C12.5021 28.5316 14.9467 28.5162 17.2602 27.9918C19.3501 27.5137 21.3243 26.5112 22.8975 25.0614C24.5632 23.5268 25.7508 21.514 26.3831 19.347C27.0695 16.9795 27.162 14.4578 26.7302 12.0363C22.4116 12.0363 18.0931 12.0363 13.7668 12.0363C13.7668 13.8255 13.7668 15.6223 13.7668 17.4114C16.2654 17.4114 18.7717 17.4114 21.2703 17.4114C20.9773 19.1311 19.9593 20.6966 18.5095 21.6682C17.5995 22.2775 16.5585 22.6785 15.4788 22.8636C14.3915 23.0486 13.2733 23.0718 12.1936 22.8558C11.0909 22.6399 10.0421 22.1772 9.1244 21.5294C7.65918 20.5038 6.54098 18.9923 5.97032 17.3034C5.38423 15.5837 5.37652 13.6635 5.97032 11.9438C6.37904 10.7331 7.06538 9.60716 7.96765 8.69719C9.07813 7.55586 10.5202 6.74613 12.078 6.41453C13.4121 6.12919 14.8156 6.18318 16.1189 6.57647C17.2294 6.91579 18.2473 7.5173 19.0879 8.31931C19.9362 7.47874 20.7768 6.63045 21.625 5.78988C22.0646 5.33489 22.535 4.90304 22.9669 4.43262C21.6867 3.24502 20.1752 2.28878 18.5327 1.68726C15.5868 0.584493 12.2476 0.561358 9.27092 1.59472Z" fill="white"/>
<path d="M9.27112 1.59464C12.2478 0.561272 15.587 0.584407 18.5483 1.67947C20.1909 2.28098 21.6946 3.23723 22.9825 4.42483C22.5506 4.88753 22.0879 5.32709 21.6407 5.78208C20.7924 6.62265 19.9518 7.47094 19.1035 8.31151C18.2629 7.5095 17.245 6.90028 16.1345 6.56867C14.8312 6.17538 13.4277 6.1214 12.0936 6.40673C10.5358 6.73833 9.09375 7.55577 7.98327 8.68939C7.081 9.59936 6.39466 10.7253 5.98594 11.936C4.48217 10.7715 2.97839 9.59936 1.47461 8.4349C3.0555 5.25769 5.91654 2.74368 9.27112 1.59464Z" fill="#E94435"/>
<path d="M0.271385 11.8898C0.510447 10.6868 0.919167 9.52231 1.4667 8.42725C2.97047 9.59171 4.47425 10.7639 5.97803 11.9283C5.38423 13.6481 5.39194 15.5683 5.97803 17.288C4.47425 18.4524 2.97047 19.6246 1.4667 20.7891C0.0863047 18.0746 -0.337838 14.8819 0.271385 11.8898Z" fill="#F8BB15"/>
<path d="M13.7747 12.0286C18.0932 12.0286 22.4118 12.0286 26.738 12.0286C27.1699 14.45 27.0773 16.9718 26.391 19.3392C25.7586 21.5062 24.571 23.5267 22.9053 25.0536C21.4478 23.92 19.9826 22.7864 18.5328 21.6527C19.9826 20.6888 21.0005 19.1156 21.2936 17.3959C18.795 17.3959 16.2887 17.3959 13.7901 17.3959C13.767 15.6145 13.7747 13.8254 13.7747 12.0286Z" fill="#547DBE"/>
<path d="M1.4668 20.7968C2.97058 19.6323 4.47435 18.4601 5.97813 17.2957C6.5488 18.9922 7.66699 20.496 9.13221 21.5217C10.0499 22.1694 11.0987 22.6244 12.2015 22.8481C13.2811 23.064 14.407 23.0409 15.4866 22.8558C16.5663 22.6707 17.6074 22.2697 18.5173 21.6605C19.9748 22.7941 21.4401 23.9277 22.8899 25.0613C21.3167 26.5188 19.3425 27.5136 17.2526 27.9918C14.9468 28.5162 12.5022 28.5316 10.2041 27.9146C8.38418 27.4288 6.67218 26.5651 5.19925 25.3929C3.6492 24.1513 2.36135 22.5704 1.4668 20.7968Z" fill="#34A751"/>
</svg>
